<svg width="343" height="284" viewBox="0 0 343 284" fill="none" xmlns="http://www.w3.org/2000/svg">
<g clip-path="url(#clip0_9_1586)">
<rect width="343" height="284" fill="white"/>
<path d="M5.56 12.58C5.56 13.66 4.77 14.52 3.35 14.59V15.4H2.77V14.58C1.63 14.47 0.81 13.82 0.5 12.71L1.61 12.36C1.84 13.04 2.28 13.37 2.77 13.47V11.64L2.56 11.58C1.92 11.4 0.7 10.95 0.7 9.7C0.7 8.55 1.65 7.84 2.77 7.75V7H3.35V7.76C4.41 7.88 5.17 8.57 5.36 9.31L4.35 9.78C4.19 9.34 3.83 8.99 3.35 8.86V10.63L3.77 10.77C4.48 10.99 5.56 11.36 5.56 12.58ZM1.94 9.58C1.94 10.03 2.31 10.26 2.77 10.43V8.83C2.25 8.89 1.94 9.17 1.94 9.58ZM3.35 11.81V13.5C3.85 13.44 4.27 13.16 4.27 12.68C4.27 12.17 3.87 11.97 3.35 11.81ZM9.34586 15H8.08586V9.33C7.71586 9.78 7.08586 10.14 6.46586 10.26V8.97C7.41586 8.72 8.11586 7.99 8.11586 7.2H9.34586V15ZM13.6284 15.17C12.3184 15.17 11.1084 14.49 10.6884 13.34L11.7084 12.69C12.0584 13.64 12.8784 14.05 13.6384 14.05C14.5384 14.05 15.2684 13.42 15.2684 12.45C15.2684 11.53 14.5884 10.92 13.6884 10.92C12.9584 10.92 12.4584 11.32 12.1984 11.84L11.1584 11.54L12.0884 7.2H16.1184V8.3H12.9984L12.5084 10.49H12.5284C12.8384 10.14 13.3884 9.91 14.0084 9.91C15.1184 9.91 16.5884 10.62 16.5884 12.38C16.5884 14.05 15.2784 15.17 13.6284 15.17ZM20.6823 15.17C18.8623 15.17 17.6823 13.51 17.6823 11.12C17.6823 8.72 18.8623 7.04 20.6823 7.04C22.4923 7.04 23.6723 8.72 23.6723 11.12C23.6723 13.51 22.4923 15.17 20.6823 15.17ZM20.6823 14C21.6623 14 22.3223 12.97 22.3223 11.11C22.3223 9.26 21.6623 8.21 20.6823 8.21C19.6923 8.21 19.0123 9.26 19.0123 11.11C19.0123 12.97 19.6923 14 20.6823 14Z" fill="#BABABA"/>
<line x1="0.5" y1="21.5" x2="342.5" y2="21.5" stroke="#F5F5F5" stroke-linecap="round"/>
<path d="M5.56 71.9133C5.56 72.9933 4.77 73.8533 3.35 73.9233V74.7333H2.77V73.9133C1.63 73.8033 0.81 73.1533 0.5 72.0433L1.61 71.6933C1.84 72.3733 2.28 72.7033 2.77 72.8033V70.9733L2.56 70.9133C1.92 70.7333 0.7 70.2833 0.7 69.0333C0.7 67.8833 1.65 67.1733 2.77 67.0833V66.3333H3.35V67.0933C4.41 67.2133 5.17 67.9033 5.36 68.6433L4.35 69.1133C4.19 68.6733 3.83 68.3233 3.35 68.1933V69.9633L3.77 70.1033C4.48 70.3233 5.56 70.6933 5.56 71.9133ZM1.94 68.9133C1.94 69.3633 2.31 69.5933 2.77 69.7633V68.1633C2.25 68.2233 1.94 68.5033 1.94 68.9133ZM3.35 71.1433V72.8333C3.85 72.7733 4.27 72.4933 4.27 72.0133C4.27 71.5033 3.87 71.3033 3.35 71.1433ZM9.34586 74.3333H8.08586V68.6633C7.71586 69.1133 7.08586 69.4733 6.46586 69.5933V68.3033C7.41586 68.0533 8.11586 67.3233 8.11586 66.5333H9.34586V74.3333ZM13.9784 74.5033C12.1584 74.5033 10.9784 72.8433 10.9784 70.4533C10.9784 68.0533 12.1584 66.3733 13.9784 66.3733C15.7884 66.3733 16.9684 68.0533 16.9684 70.4533C16.9684 72.8433 15.7884 74.5033 13.9784 74.5033ZM13.9784 73.3333C14.9584 73.3333 15.6184 72.3033 15.6184 70.4433C15.6184 68.5933 14.9584 67.5433 13.9784 67.5433C12.9884 67.5433 12.3084 68.5933 12.3084 70.4433C12.3084 72.3033 12.9884 73.3333 13.9784 73.3333ZM21.1901 74.5033C19.3701 74.5033 18.1901 72.8433 18.1901 70.4533C18.1901 68.0533 19.3701 66.3733 21.1901 66.3733C23.0001 66.3733 24.1801 68.0533 24.1801 70.4533C24.1801 72.8433 23.0001 74.5033 21.1901 74.5033ZM21.1901 73.3333C22.1701 73.3333 22.8301 72.3033 22.8301 70.4433C22.8301 68.5933 22.1701 67.5433 21.1901 67.5433C20.2001 67.5433 19.5201 68.5933 19.5201 70.4433C19.5201 72.3033 20.2001 73.3333 21.1901 73.3333Z" fill="#BABABA"/>
<line x1="0.5" y1="80.8333" x2="342.5" y2="80.8333" stroke="#F5F5F5" stroke-linecap="round"/>
<path d="M5.56 131.247C5.56 132.327 4.77 133.187 3.35 133.257V134.067H2.77V133.247C1.63 133.137 0.81 132.487 0.5 131.377L1.61 131.027C1.84 131.707 2.28 132.037 2.77 132.137V130.307L2.56 130.247C1.92 130.067 0.7 129.617 0.7 128.367C0.7 127.217 1.65 126.507 2.77 126.417V125.667H3.35V126.427C4.41 126.547 5.17 127.237 5.36 127.977L4.35 128.447C4.19 128.007 3.83 127.657 3.35 127.527V129.297L3.77 129.437C4.48 129.657 5.56 130.027 5.56 131.247ZM1.94 128.247C1.94 128.697 2.31 128.927 2.77 129.097V127.497C2.25 127.557 1.94 127.837 1.94 128.247ZM3.35 130.477V132.167C3.85 132.107 4.27 131.827 4.27 131.347C4.27 130.837 3.87 130.637 3.35 130.477ZM9.44398 133.837C8.13398 133.837 6.92398 133.157 6.50398 132.007L7.52398 131.357C7.87398 132.307 8.69398 132.717 9.45398 132.717C10.354 132.717 11.084 132.087 11.084 131.117C11.084 130.197 10.404 129.587 9.50398 129.587C8.77398 129.587 8.27398 129.987 8.01398 130.507L6.97398 130.207L7.90398 125.867H11.934V126.967H8.81398L8.32398 129.157H8.34398C8.65398 128.807 9.20398 128.577 9.82398 128.577C10.934 128.577 12.404 129.287 12.404 131.047C12.404 132.717 11.094 133.837 9.44398 133.837ZM16.4979 133.837C14.6779 133.837 13.4979 132.177 13.4979 129.787C13.4979 127.387 14.6779 125.707 16.4979 125.707C18.3079 125.707 19.4879 127.387 19.4879 129.787C19.4879 132.177 18.3079 133.837 16.4979 133.837ZM16.4979 132.667C17.4779 132.667 18.1379 131.637 18.1379 129.777C18.1379 127.927 17.4779 126.877 16.4979 126.877C15.5079 126.877 14.8279 127.927 14.8279 129.777C14.8279 131.637 15.5079 132.667 16.4979 132.667Z" fill="#BABABA"/>
<line x1="0.5" y1="140.167" x2="342.5" y2="140.167" stroke="#F5F5F5" stroke-linecap="round"/>
<path d="M3.51 193.17C1.69 193.17 0.51 191.51 0.51 189.12C0.51 186.72 1.69 185.04 3.51 185.04C5.32 185.04 6.5 186.72 6.5 189.12C6.5 191.51 5.32 193.17 3.51 193.17ZM3.51 192C4.49 192 5.15 190.97 5.15 189.11C5.15 187.26 4.49 186.21 3.51 186.21C2.52 186.21 1.84 187.26 1.84 189.11C1.84 190.97 2.52 192 3.51 192Z" fill="#BABABA"/>
<line x1="0.5" y1="199.5" x2="342.5" y2="199.5" stroke="#F5F5F5" stroke-linecap="round"/>
<path d="M17.04 220H15.632V211.42H17.348C18.327 213.554 19.295 215.677 20.219 217.877H20.241C21.198 215.677 22.166 213.554 23.123 211.42H24.839V220H23.431V214.027H23.398C22.529 216.139 21.649 218.086 20.758 220H19.702C18.822 218.086 17.942 216.139 17.073 214.027H17.04V220ZM27.5412 220H26.0892L29.4222 211.42H31.0172L34.3392 220H32.8652L31.8972 217.536H28.4872L27.5412 220ZM28.9822 216.205H31.4022C31.0502 215.292 30.6432 214.247 30.2142 213.081H30.1922L28.9822 216.205ZM38.1983 220H36.8123V216.997C35.8003 215.138 34.7773 213.279 33.7543 211.42H35.2503L37.4943 215.633H37.5163C38.2753 214.225 39.0233 212.828 39.7713 211.42H41.2563C40.2333 213.268 39.2213 215.127 38.1983 216.986V220Z" fill="#BABABA"/>
<path d="M90.721 220.187C89.115 220.187 87.74 219.274 87.74 217.283V217.008L89.104 216.821V217.074C89.104 218.295 89.786 218.889 90.655 218.889C91.964 218.889 92.03 217.602 92.03 216.898V211.42H93.405V216.656C93.405 217.646 93.405 220.187 90.721 220.187ZM98.6213 220.187C96.0583 220.187 95.4203 218.394 95.4203 216.711V211.42H96.8063V216.601C96.8063 218.02 97.3453 218.889 98.6433 218.889C99.9303 218.889 100.48 218.02 100.48 216.601V211.42H101.855V216.711C101.855 218.273 101.305 220.187 98.6213 220.187ZM105.332 220H103.946V211.42H105.398C106.795 213.455 108.181 215.457 109.578 217.602H109.6V211.42H110.986V220H109.534C108.159 217.987 106.751 216.029 105.354 213.917H105.332V220Z" fill="#BABABA"/>
<path d="M163.739 220.187C162.133 220.187 160.758 219.274 160.758 217.283V217.008L162.122 216.821V217.074C162.122 218.295 162.804 218.889 163.673 218.889C164.982 218.889 165.048 217.602 165.048 216.898V211.42H166.423V216.656C166.423 217.646 166.423 220.187 163.739 220.187ZM171.639 220.187C169.076 220.187 168.438 218.394 168.438 216.711V211.42H169.824V216.601C169.824 218.02 170.363 218.889 171.661 218.889C172.948 218.889 173.498 218.02 173.498 216.601V211.42H174.873V216.711C174.873 218.273 174.323 220.187 171.639 220.187ZM178.35 211.42V218.713H182.31V220H176.964V211.42H178.35Z" fill="#BABABA"/>
<path d="M231.544 220H230.092L233.425 211.42H235.02L238.342 220H236.868L235.9 217.536H232.49L231.544 220ZM232.985 216.205H235.405C235.053 215.292 234.646 214.247 234.217 213.081H234.195L232.985 216.205ZM242.524 220.187C239.961 220.187 239.323 218.394 239.323 216.711V211.42H240.709V216.601C240.709 218.02 241.248 218.889 242.546 218.889C243.833 218.889 244.383 218.02 244.383 216.601V211.42H245.758V216.711C245.758 218.273 245.208 220.187 242.524 220.187ZM251.578 220.187C249.114 220.187 247.354 218.339 247.354 215.732C247.354 212.949 249.334 211.244 251.688 211.244C253.503 211.244 255.021 212.267 255.582 213.884L254.306 214.401C253.844 213.29 252.942 212.553 251.688 212.553C250.104 212.553 248.806 213.741 248.806 215.765C248.806 218.031 250.467 218.878 251.82 218.878C253.195 218.878 254.218 218.031 254.405 216.777H251.93V215.633H255.791V220H254.713L254.647 218.515H254.592C253.987 219.582 252.986 220.187 251.578 220.187Z" fill="#BABABA"/>
<path d="M307.583 220.187C306.021 220.187 304.668 219.362 304.239 217.657L305.526 217.206C305.867 218.471 306.714 218.922 307.572 218.922C308.386 218.922 309.178 218.526 309.178 217.69C309.178 216.843 308.386 216.612 307.616 216.381L306.846 216.139C305.999 215.875 304.525 215.325 304.525 213.708C304.525 212.157 305.867 211.244 307.44 211.244C308.98 211.244 310.069 212.135 310.377 213.257L309.112 213.774C308.837 212.993 308.254 212.498 307.396 212.498C306.571 212.498 305.977 212.949 305.977 213.598C305.977 214.412 306.923 214.742 307.561 214.951L308.452 215.237C309.277 215.501 310.663 215.908 310.663 217.514C310.663 219.065 309.398 220.187 307.583 220.187ZM317.927 220H312.273V211.42H317.817V212.696H313.659C313.659 213.455 313.659 214.203 313.659 214.962H317.597V216.293H313.659C313.659 217.096 313.659 217.91 313.659 218.713H317.927V220ZM319.669 211.42H322.892C323.838 211.42 325.818 211.86 325.818 214.093C325.818 216.392 323.805 216.865 322.969 216.865H321.055V220H319.669V211.42ZM321.055 215.523H322.661C323.464 215.523 324.366 215.215 324.366 214.104C324.366 213.015 323.453 212.696 322.65 212.696H321.055V215.523Z" fill="#BABABA"/>
<path d="M17.8325 267H11.0725V266.818C11.1765 264.413 12.1515 263.555 14.3615 262.034C15.3105 261.397 16.2335 260.721 16.2335 259.681C16.2335 258.797 15.5705 258.134 14.4785 258.134C13.1525 258.134 12.3725 259.109 12.3725 260.526L10.8515 260.266C10.8515 258.16 12.3595 256.652 14.5175 256.652C16.4545 256.652 17.9235 257.848 17.9235 259.668C17.9235 261.111 17.0135 262.021 16.0125 262.71C14.7645 263.607 13.4905 264.101 13.1265 265.479H17.8325V267ZM23.875 267H21.834L18.831 256.86H20.677C21.483 259.59 22.159 262.047 22.861 264.712H22.887C23.667 262.099 24.46 259.486 25.24 256.86H27.099C27.892 259.486 28.685 262.099 29.465 264.712H29.491C30.193 262.099 30.908 259.447 31.662 256.86H33.521L30.518 267H28.49C27.619 264.296 26.93 261.969 26.189 259.421H26.163C25.396 262.099 24.681 264.491 23.875 267Z" fill="#212121"/>
<path d="M76.2812 267H74.6432V259.629C74.1622 260.214 73.3432 260.682 72.5372 260.838V259.161C73.7722 258.836 74.6822 257.887 74.6822 256.86H76.2812V267ZM80.4314 267H78.7674V256.86H80.7954C81.9524 259.382 83.0964 261.891 84.1884 264.491H84.2144C85.3454 261.891 86.4894 259.382 87.6204 256.86H89.6484V267H87.9844V259.941H87.9454C86.9184 262.437 85.8784 264.738 84.8254 267H83.5774C82.5374 264.738 81.4974 262.437 80.4704 259.941H80.4314V267Z" fill="#212121"/>
<path d="M135.305 267.221C133.498 267.221 131.938 266.311 131.522 264.907L132.939 264.192C133.147 264.803 133.836 265.713 135.266 265.713C136.423 265.713 137.203 265.102 137.203 264.114C137.203 263.191 136.527 262.502 135.214 262.502H134.187V261.176H135.162C136.267 261.176 136.93 260.539 136.93 259.668C136.93 258.732 136.176 258.147 135.149 258.147C134.148 258.147 133.381 258.745 133.225 259.85L131.743 259.525C131.951 257.913 133.342 256.652 135.292 256.652C137.073 256.652 138.633 257.692 138.633 259.395C138.633 260.513 137.944 261.423 136.982 261.67V261.683C138.074 261.904 138.932 262.749 138.932 264.075C138.932 265.648 137.71 267.221 135.305 267.221ZM142.525 267H140.861V256.86H142.889C144.046 259.382 145.19 261.891 146.282 264.491H146.308C147.439 261.891 148.583 259.382 149.714 256.86H151.742V267H150.078V259.941H150.039C149.012 262.437 147.972 264.738 146.919 267H145.671C144.631 264.738 143.591 262.437 142.564 259.941H142.525V267Z" fill="#212121"/>
<rect x="179.4" y="240" width="44" height="44" rx="22" fill="#F5F5F5"/>
<path d="M194.978 267.221C192.664 267.221 191.091 265.544 191.091 262.489C191.091 259.07 193.054 256.652 195.888 256.652C196.72 256.652 197.734 256.86 198.475 257.575L197.578 258.745C197.019 258.29 196.421 258.134 195.771 258.134C194.029 258.134 192.885 259.733 192.846 261.709H192.872C193.314 260.903 194.237 260.383 195.316 260.383C197.11 260.383 198.696 261.709 198.696 263.724C198.696 265.7 197.201 267.221 194.978 267.221ZM194.991 265.765C196.018 265.765 196.993 265.011 196.993 263.776C196.993 262.541 196.044 261.748 195.004 261.748C193.886 261.748 192.989 262.658 192.989 263.789C192.989 264.972 193.964 265.765 194.991 265.765ZM202.19 267H200.526V256.86H202.554C203.711 259.382 204.855 261.891 205.947 264.491H205.973C207.104 261.891 208.248 259.382 209.379 256.86H211.407V267H209.743V259.941H209.704C208.677 262.437 207.637 264.738 206.584 267H205.336C204.296 264.738 203.256 262.437 202.229 259.941H202.19V267Z" fill="#212121"/>
<path d="M258.338 267H256.7V259.629C256.219 260.214 255.4 260.682 254.594 260.838V259.161C255.829 258.836 256.739 257.887 256.739 256.86H258.338V267ZM265.023 267H263.385V263.451C262.189 261.254 260.98 259.057 259.771 256.86H261.539L264.191 261.839H264.217C265.114 260.175 265.998 258.524 266.882 256.86H268.637C267.428 259.044 266.232 261.241 265.023 263.438V267Z" fill="#212121"/>
<path d="M310.064 267H308.348L312.287 256.86H314.172L318.098 267H316.356L315.212 264.088H311.182L310.064 267ZM311.767 262.515H314.627C314.211 261.436 313.73 260.201 313.223 258.823H313.197L311.767 262.515ZM321.097 256.86V265.479H325.777V267H319.459V256.86H321.097ZM328.87 256.86V265.479H333.55V267H327.232V256.86H328.87Z" fill="#212121"/>
<path d="M-8 141.046C-1.27246 148.434 -0.650577 165.549 8.76239 168.238C16.2595 170.38 21.3566 156.891 25.5878 153.083C31.65 147.627 34.6765 167.135 39.7665 167.135C42.8012 167.135 46.5552 166.512 49.5026 167.167C50.9938 167.498 52.1981 170.162 53.252 171.105C57.0648 174.517 67.8969 149.493 75.244 145.972C76.0384 145.591 76.9309 145.425 77.6159 144.871C86.229 137.908 89.2096 101.01 90.9989 93.6895C93.1342 84.9545 102.604 53.1384 115.355 53.1384C119.24 53.1384 120.964 58.9501 125.028 58.2112C133.477 56.675 137.296 46.4238 145.445 44.0955C150.596 42.6239 156.143 58.5819 160.317 62.3388C164.269 65.8954 171.11 58.0305 175.756 67.0651C178.043 71.5117 190.051 100.684 191.762 99.6446C197.84 95.9547 199.191 90.3114 203.672 86.7262C206.703 84.3016 213.801 93.406 218.324 93.406C222.312 93.406 223.314 91.8146 226.799 90.2551C228.552 89.471 239.548 88.1463 239.97 86.9153C242.127 80.6232 248.569 68.3931 252.321 62.6539C255.725 57.4488 261.174 59.0161 264.924 62.906C269.057 67.1915 270.563 68.7713 276.709 67.1911C280.738 66.1551 284.274 65.2415 287.484 68.4514C296.473 77.4403 295.548 91.8699 301.789 102.48C306.038 109.704 317.421 114.725 324.475 119.054C329.091 121.886 336.671 141.95 337.709 139.282C339.512 134.645 345.064 123.465 351.005 123.465" stroke="#212121" stroke-width="4" stroke-linecap="round"/>
</g>
<defs>
<clipPath id="clip0_9_1586">
<rect width="343" height="284" fill="white"/>
</clipPath>
</defs>
</svg>
